<svg width="21" height="14" viewBox="0 0 21 14" fill="none" xmlns="http://www.w3.org/2000/svg">
<path d="M0.370829 4.152V3.396H2.41083V12H1.55883V4.152H0.370829ZM10.5947 0.719999L7.28274 13.992H6.45474L9.74274 0.719999H10.5947ZM19.8036 4.116H15.4116V7.188C15.6116 6.908 15.9036 6.68 16.2876 6.504C16.6716 6.32 17.0876 6.228 17.5356 6.228C18.1916 6.228 18.7276 6.364 19.1436 6.636C19.5596 6.9 19.8596 7.248 20.0436 7.68C20.2276 8.104 20.3196 8.56 20.3196 9.048C20.3196 9.608 20.2116 10.116 19.9956 10.572C19.7876 11.02 19.4636 11.376 19.0236 11.64C18.5916 11.904 18.0516 12.036 17.4036 12.036C16.5796 12.036 15.9116 11.824 15.3996 11.4C14.8876 10.968 14.5756 10.388 14.4636 9.66H15.2916C15.3956 10.188 15.6356 10.596 16.0116 10.884C16.3876 11.172 16.8516 11.316 17.4036 11.316C18.0996 11.316 18.6236 11.112 18.9756 10.704C19.3356 10.288 19.5156 9.74 19.5156 9.06C19.5156 8.396 19.3356 7.88 18.9756 7.512C18.6156 7.136 18.0996 6.948 17.4276 6.948C16.9636 6.948 16.5556 7.056 16.2036 7.272C15.8516 7.488 15.5916 7.78 15.4236 8.148H14.6316V3.384H19.8036V4.116Z" fill="#E5E5E5"/>
</svg>
